<svg xmlns="http://www.w3.org/2000/svg" xmlns:xlink="http://www.w3.org/1999/xlink" width="12" height="12" viewBox="0 0 12 12"><defs><clipPath id="a"><rect width="12" height="12" fill="#c70752"/></clipPath></defs><g clip-path="url(#a)"><g transform="translate(0 0.791)"><path d="M11.833,5.807a4.383,4.383,0,0,1-1.406,3.152v2.083l-2.083-.8A6.807,6.807,0,0,1,6,10.656C2.778,10.656.167,8.485.167,5.807S2.778.958,6,.958,11.833,3.129,11.833,5.807Z" transform="translate(0 -0.792)" fill="#c70752"/><path d="M10.427,11.209a.167.167,0,0,1-.06-.011l-2.025-.775a6.957,6.957,0,0,1-2.342.4c-3.308,0-6-2.25-6-5.016S2.692.792,6,.792s6,2.25,6,5.015a4.551,4.551,0,0,1-1.406,3.222v2.013a.167.167,0,0,1-.167.167Zm-2.083-1.13a.167.167,0,0,1,.06.011l1.857.71V8.959a.166.166,0,0,1,.051-.12,4.233,4.233,0,0,0,1.355-3.032c0-2.582-2.542-4.682-5.667-4.682S.333,3.225.333,5.807,2.875,10.49,6,10.49a6.617,6.617,0,0,0,2.287-.4A.163.163,0,0,1,8.344,10.078Z" transform="translate(0 -0.792)" fill="#c70752"/></g></g></svg>