<svg xmlns="http://www.w3.org/2000/svg" xmlns:xlink="http://www.w3.org/1999/xlink" width="189" height="32" viewBox="0 0 189 32"><defs><clipPath id="a"><rect width="32" height="32" transform="translate(60 12)" fill="#007e7d"/></clipPath></defs><g transform="translate(-60 -14)"><text transform="translate(102 36)" fill="#142d3e" font-size="18" font-family="Montserrat-Black, Montserrat" font-weight="800"><tspan x="0" y="0">DRINK PORTAL</tspan></text><g transform="translate(0 2)" clip-path="url(#a)"><g transform="translate(61.353 12)"><path d="M24.585,0a6.241,6.241,0,0,0-6.16,5.291H2.262l-.739,1.52,11.2,14.274v7.652a1.385,1.385,0,0,1-1.383,1.383H6.692V32H20.631V30.12H15.985A1.385,1.385,0,0,1,14.6,28.737V21.085l7.258-9.25A6.231,6.231,0,1,0,24.585,0ZM23.129,7.171,20.437,10.6a3.759,3.759,0,0,0-2.1-.643,3.935,3.935,0,0,0-3.057,1.517l-.021.025a1.966,1.966,0,0,1-3.21,0l-.021-.025A3.935,3.935,0,0,0,8.973,9.959a3.758,3.758,0,0,0-2.091.639L4.194,7.171Zm-3.861,4.921-5.607,7.146-5.61-7.15a1.875,1.875,0,0,1,.922-.249,2.092,2.092,0,0,1,1.606.832l.02.024a3.839,3.839,0,0,0,6.115,0l.02-.024a2.092,2.092,0,0,1,1.605-.831,1.876,1.876,0,0,1,.929.253Zm5.317-1.51a4.345,4.345,0,0,1-1.526-.276l2.742-3.5-.739-1.52H20.337a4.351,4.351,0,1,1,4.248,5.291Z" transform="translate(-1.522)" fill="#007e7d"/></g></g></g></svg>